<mxfile host="app.diagrams.net" agent="Mozilla/5.0 (Windows NT 10.0; Win64; x64) AppleWebKit/537.36 (KHTML, like Gecko) Chrome/128.0.0.0 Safari/537.36 Edg/128.0.0.0" version="24.7.8">
  <diagram name="Page-1" id="FK3msoAK0TUD-WfB9kvl">
    <mxGraphModel dx="1182" dy="684" grid="0" gridSize="10" guides="1" tooltips="1" connect="1" arrows="1" fold="1" page="1" pageScale="1" pageWidth="1100" pageHeight="850" math="0" shadow="0">
      <root>
        <mxCell id="0" />
        <mxCell id="1" parent="0" />
        <mxCell id="qU6PymndbL_hzaN4xeRR-1" value="NLP to turn documents to understandable flowchart" style="text;html=1;align=center;verticalAlign=middle;whiteSpace=wrap;rounded=0;fontFamily=Comic Sans MS;fontSize=25;" vertex="1" parent="1">
          <mxGeometry x="149" y="68" width="630" height="100" as="geometry" />
        </mxCell>
        <mxCell id="qU6PymndbL_hzaN4xeRR-4" value="" style="edgeStyle=orthogonalEdgeStyle;rounded=0;orthogonalLoop=1;jettySize=auto;html=1;fontSize=14;fontFamily=Comic Sans MS;" edge="1" parent="1" source="qU6PymndbL_hzaN4xeRR-2" target="qU6PymndbL_hzaN4xeRR-3">
          <mxGeometry relative="1" as="geometry" />
        </mxCell>
        <mxCell id="qU6PymndbL_hzaN4xeRR-2" value="Doc&amp;nbsp;" style="rounded=1;whiteSpace=wrap;html=1;fontSize=14;fontFamily=Comic Sans MS;" vertex="1" parent="1">
          <mxGeometry x="31" y="190" width="120" height="60" as="geometry" />
        </mxCell>
        <mxCell id="qU6PymndbL_hzaN4xeRR-12" value="" style="edgeStyle=orthogonalEdgeStyle;rounded=0;orthogonalLoop=1;jettySize=auto;html=1;fontSize=14;fontFamily=Comic Sans MS;" edge="1" parent="1" source="qU6PymndbL_hzaN4xeRR-3" target="qU6PymndbL_hzaN4xeRR-11">
          <mxGeometry relative="1" as="geometry" />
        </mxCell>
        <mxCell id="qU6PymndbL_hzaN4xeRR-3" value="tokenizer" style="whiteSpace=wrap;html=1;rounded=1;fontSize=14;fontFamily=Comic Sans MS;" vertex="1" parent="1">
          <mxGeometry x="231" y="190" width="120" height="60" as="geometry" />
        </mxCell>
        <mxCell id="qU6PymndbL_hzaN4xeRR-9" value="" style="edgeStyle=orthogonalEdgeStyle;rounded=0;orthogonalLoop=1;jettySize=auto;html=1;fontSize=14;fontFamily=Comic Sans MS;" edge="1" parent="1" source="qU6PymndbL_hzaN4xeRR-5" target="qU6PymndbL_hzaN4xeRR-8">
          <mxGeometry relative="1" as="geometry" />
        </mxCell>
        <mxCell id="qU6PymndbL_hzaN4xeRR-5" value="" style="shape=actor;whiteSpace=wrap;html=1;fontSize=14;fontFamily=Comic Sans MS;" vertex="1" parent="1">
          <mxGeometry x="44" y="544" width="40" height="60" as="geometry" />
        </mxCell>
        <mxCell id="qU6PymndbL_hzaN4xeRR-10" style="edgeStyle=orthogonalEdgeStyle;rounded=0;orthogonalLoop=1;jettySize=auto;html=1;entryX=0.5;entryY=1;entryDx=0;entryDy=0;fontSize=14;fontFamily=Comic Sans MS;" edge="1" parent="1" source="qU6PymndbL_hzaN4xeRR-8" target="qU6PymndbL_hzaN4xeRR-3">
          <mxGeometry relative="1" as="geometry" />
        </mxCell>
        <mxCell id="qU6PymndbL_hzaN4xeRR-22" style="edgeStyle=orthogonalEdgeStyle;rounded=0;orthogonalLoop=1;jettySize=auto;html=1;entryX=0;entryY=0.5;entryDx=0;entryDy=0;fontSize=14;fontFamily=Comic Sans MS;" edge="1" parent="1" source="qU6PymndbL_hzaN4xeRR-8" target="qU6PymndbL_hzaN4xeRR-20">
          <mxGeometry relative="1" as="geometry" />
        </mxCell>
        <mxCell id="qU6PymndbL_hzaN4xeRR-8" value="prompt" style="rounded=1;whiteSpace=wrap;html=1;fontSize=14;fontFamily=Comic Sans MS;" vertex="1" parent="1">
          <mxGeometry x="231" y="544" width="120" height="60" as="geometry" />
        </mxCell>
        <mxCell id="qU6PymndbL_hzaN4xeRR-14" value="" style="edgeStyle=orthogonalEdgeStyle;rounded=0;orthogonalLoop=1;jettySize=auto;html=1;fontSize=14;fontFamily=Comic Sans MS;" edge="1" parent="1" source="qU6PymndbL_hzaN4xeRR-11" target="qU6PymndbL_hzaN4xeRR-13">
          <mxGeometry relative="1" as="geometry" />
        </mxCell>
        <mxCell id="qU6PymndbL_hzaN4xeRR-11" value="embedding model&lt;div style=&quot;font-size: 14px;&quot;&gt;(LLM)&lt;/div&gt;" style="whiteSpace=wrap;html=1;rounded=1;fontSize=14;fontFamily=Comic Sans MS;" vertex="1" parent="1">
          <mxGeometry x="461" y="190" width="120" height="60" as="geometry" />
        </mxCell>
        <mxCell id="qU6PymndbL_hzaN4xeRR-16" value="" style="edgeStyle=orthogonalEdgeStyle;rounded=0;orthogonalLoop=1;jettySize=auto;html=1;fontSize=14;fontFamily=Comic Sans MS;" edge="1" parent="1" source="qU6PymndbL_hzaN4xeRR-13" target="qU6PymndbL_hzaN4xeRR-15">
          <mxGeometry relative="1" as="geometry" />
        </mxCell>
        <mxCell id="qU6PymndbL_hzaN4xeRR-13" value="Embedded vectors" style="whiteSpace=wrap;html=1;rounded=1;fontSize=14;fontFamily=Comic Sans MS;" vertex="1" parent="1">
          <mxGeometry x="461" y="303" width="120" height="60" as="geometry" />
        </mxCell>
        <mxCell id="qU6PymndbL_hzaN4xeRR-18" style="edgeStyle=orthogonalEdgeStyle;rounded=0;orthogonalLoop=1;jettySize=auto;html=1;entryX=0;entryY=0.5;entryDx=0;entryDy=0;fontSize=14;fontFamily=Comic Sans MS;" edge="1" parent="1" source="qU6PymndbL_hzaN4xeRR-15" target="qU6PymndbL_hzaN4xeRR-17">
          <mxGeometry relative="1" as="geometry" />
        </mxCell>
        <mxCell id="qU6PymndbL_hzaN4xeRR-15" value="Vector DB&lt;div style=&quot;font-size: 14px;&quot;&gt;(PgVector)&lt;/div&gt;" style="shape=cylinder3;whiteSpace=wrap;html=1;boundedLbl=1;backgroundOutline=1;size=15;fontSize=14;fontFamily=Comic Sans MS;" vertex="1" parent="1">
          <mxGeometry x="481" y="407.5" width="80" height="110" as="geometry" />
        </mxCell>
        <mxCell id="qU6PymndbL_hzaN4xeRR-21" value="" style="edgeStyle=orthogonalEdgeStyle;rounded=0;orthogonalLoop=1;jettySize=auto;html=1;fontSize=14;fontFamily=Comic Sans MS;" edge="1" parent="1" source="qU6PymndbL_hzaN4xeRR-17" target="qU6PymndbL_hzaN4xeRR-20">
          <mxGeometry relative="1" as="geometry" />
        </mxCell>
        <mxCell id="qU6PymndbL_hzaN4xeRR-17" value="Similarity computation" style="rounded=1;whiteSpace=wrap;html=1;fontSize=14;fontFamily=Comic Sans MS;" vertex="1" parent="1">
          <mxGeometry x="686" y="430" width="130" height="65" as="geometry" />
        </mxCell>
        <mxCell id="qU6PymndbL_hzaN4xeRR-19" style="edgeStyle=orthogonalEdgeStyle;rounded=0;orthogonalLoop=1;jettySize=auto;html=1;entryX=0;entryY=0.5;entryDx=0;entryDy=0;entryPerimeter=0;fontSize=14;fontFamily=Comic Sans MS;" edge="1" parent="1" source="qU6PymndbL_hzaN4xeRR-3" target="qU6PymndbL_hzaN4xeRR-15">
          <mxGeometry relative="1" as="geometry" />
        </mxCell>
        <mxCell id="qU6PymndbL_hzaN4xeRR-24" value="" style="edgeStyle=orthogonalEdgeStyle;rounded=0;orthogonalLoop=1;jettySize=auto;html=1;fontSize=14;fontFamily=Comic Sans MS;" edge="1" parent="1" source="qU6PymndbL_hzaN4xeRR-20" target="qU6PymndbL_hzaN4xeRR-23">
          <mxGeometry relative="1" as="geometry" />
        </mxCell>
        <mxCell id="qU6PymndbL_hzaN4xeRR-20" value="Enhanced context" style="rounded=1;whiteSpace=wrap;html=1;fontSize=14;fontFamily=Comic Sans MS;" vertex="1" parent="1">
          <mxGeometry x="691" y="544" width="120" height="60" as="geometry" />
        </mxCell>
        <mxCell id="qU6PymndbL_hzaN4xeRR-26" value="" style="edgeStyle=orthogonalEdgeStyle;rounded=0;orthogonalLoop=1;jettySize=auto;html=1;fontSize=14;fontFamily=Comic Sans MS;" edge="1" parent="1" source="qU6PymndbL_hzaN4xeRR-23" target="qU6PymndbL_hzaN4xeRR-25">
          <mxGeometry relative="1" as="geometry" />
        </mxCell>
        <mxCell id="qU6PymndbL_hzaN4xeRR-23" value="Local LLM" style="whiteSpace=wrap;html=1;rounded=1;fontSize=14;fontFamily=Comic Sans MS;" vertex="1" parent="1">
          <mxGeometry x="691" y="670" width="120" height="60" as="geometry" />
        </mxCell>
        <mxCell id="qU6PymndbL_hzaN4xeRR-25" value="flowchart" style="whiteSpace=wrap;html=1;rounded=1;fontSize=14;fontFamily=Comic Sans MS;" vertex="1" parent="1">
          <mxGeometry x="890" y="670" width="120" height="60" as="geometry" />
        </mxCell>
      </root>
    </mxGraphModel>
  </diagram>
</mxfile>
